<?xml version="1.0" encoding="utf-8"?>
<!-- Generator: Adobe Illustrator 26.0.0, SVG Export Plug-In . SVG Version: 6.00 Build 0)  -->
<svg version="1.1" id="图层_1" xmlns="http://www.w3.org/2000/svg" xmlns:xlink="http://www.w3.org/1999/xlink" x="0px" y="0px"
	 viewBox="0 0 120.7 30" style="enable-background:new 0 0 120.7 30;" xml:space="preserve">
<style type="text/css">
	.st0{fill:#4555D2;}
	.st1{fill:#CC2973;}
	.st2{font-family:'Calibri';}
	.st3{font-size:20px;}
</style>
<g transform="translate(0.000000,300.000000) scale(0.100000,-0.100000)">
	<path class="st0" d="M133.1,2965.7c-4.2-2-6.5-2.5-9.9-2.1c-5.3,0.6-8.6-0.5-12.2-3.9c-1.5-1.4-4.3-2.7-6.5-3
		c-7.5-1-8.6-1.5-12.6-5.8c-2.7-3.1-5.2-4.7-8.1-5.5c-4.5-1.1-7.2-3.4-10.2-8.8c-1-1.8-3.6-3.9-5.7-4.9c-4.7-2.1-7.4-5.3-8.3-9.7
		c-0.4-2.1-2.4-4.8-5.6-7.7c-4.4-4-5.1-5.1-5.9-10.3c-0.7-4.2-1.8-6.8-3.9-9.3c-3.5-3.9-4.5-7.1-3.8-11.7c0.3-2.2-0.4-5-2.4-9.2
		c-2.6-5.4-2.8-6.4-1.8-9.9c1-3.7,0.9-5.6-0.7-14.9c-0.4-2.7-0.1-5.1,1.4-8.5c1.5-3.5,1.8-6.2,1.5-10.7c-0.4-5.4-0.2-6.4,2.4-10
		c2.2-2.9,3.1-5.6,3.6-9.8c0.5-5.2,1.1-6.4,5-10.6c3.2-3.4,4.7-6,5.2-8.8c0.7-4.5,2.8-7.2,7.6-10c1.7-1,4.1-3.8,5.4-6.3
		c2.8-5.5,4.9-7.4,9.8-9c2.5-0.8,4.6-2.5,6.7-5.4c3-4.4,5.7-6,12.1-7c2-0.4,4.7-1.8,6-3.2c3.5-3.8,7.2-5.4,12.5-5.4
		c3.3,0,6.1-0.8,9.2-2.6c4.1-2.4,5.1-2.6,11.3-2c5.2,0.6,7.5,0.3,9.8-0.8c3.9-2,8.4-2,12.3,0c2.4,1.2,4.6,1.4,9.4,0.9
		c5.9-0.6,6.8-0.4,11.8,2.4c4.1,2.4,6.6,3.1,10.5,3.1c4.6,0,5.6,0.4,9.4,3.9c2.4,2.2,5.7,4.2,7.7,4.5c6.3,1.3,8.8,2.7,11.5,6.8
		c1.9,2.8,4.2,4.7,8.1,6.4c5,2.2,5.8,3,7.9,7.9c1.6,3.5,3.4,5.9,5.2,6.9c4.4,2.2,7.1,5.7,8.2,10.5c0.6,2.7,2.2,5.7,4.5,8
		c4.1,4.2,5.6,7.8,5.6,13.2c0,2.8,0.9,5.1,3.1,8.2c2.9,3.9,3,4.6,2.4,10.2c-0.5,4.9-0.2,6.9,1.6,10.9c2.1,4.8,2.1,5,0.4,10.7
		c-1.5,4.8-1.6,6.7-0.7,11.1c1,4.9,0.9,5.7-1.5,10.3c-2,3.8-2.7,6.5-2.7,11.1c-0.1,5.6-0.4,6.5-3.8,10.2c-2.7,3-3.8,5.3-4.3,8.9
		c-0.9,5.8-2.5,8.6-6.5,10.9c-1.9,1.2-3.6,3.4-4.7,6.4c-2.1,5.8-3.8,7.7-9.4,10.6c-3,1.5-5,3.3-5.9,5.4c-1.5,3.7-6.4,8-9.1,8
		c-3.1,0-6,1.8-9.9,6.1c-3.1,3.5-4.2,4-9.6,4.7c-4.6,0.6-7,1.6-10.2,4.1c-3.8,3.1-4.4,3.3-9.4,2.7c-4.5-0.6-6.2-0.3-11,1.9
		c-5.6,2.6-5.8,2.6-11.2,1c-5-1.5-6-1.5-10.7-0.1c-2.9,0.9-5.3,1.6-5.3,1.6C138.6,2968.3,136.1,2967.1,133.1,2965.7z M144.5,2959.1
		c3.5-0.9,5.6-0.9,10,0.2c5.3,1.2,5.9,1.2,10.6-1c3.9-1.8,5.9-2.2,9.9-1.7c4.3,0.5,5.5,0.3,7.8-1.7c4.3-3.6,6.8-4.6,11.3-4.6
		c3.7,0,4.7-0.5,8.4-4.5c3-3.3,5.5-4.9,9.3-6c4.4-1.3,5.5-2.2,7.5-5.8c1.6-3,3.8-5,7.5-7c4.5-2.4,5.4-3.4,6.4-7
		c0.8-2.9,2.6-5.6,5.9-8.7c4-3.8,4.9-5.3,5.5-9.3c0.5-3.5,1.6-5.9,4.1-8.6c3-3.4,3.4-4.4,3.4-9.6c0-4.5,0.6-6.9,2.6-10.3
		c2.5-4.2,2.6-4.8,1.5-9.6c-0.9-4.3-0.9-5.9,0.5-9.9c0.9-2.6,1.4-5.5,1.1-6.5c-0.3-0.9-1.3-3.6-2.1-5.9c-1.1-3.1-1.3-5.4-0.7-8.7
		c0.7-4,0.5-4.9-2.2-9.1c-2-3.1-3.2-6.3-3.5-9.8c-0.4-4.2-1.2-5.9-4.2-9.3c-2.4-2.6-4.1-5.8-4.9-9.1c-1-4.2-2-5.5-5.6-8.1
		c-2.7-1.9-5.4-5-6.9-8c-2.1-4.1-3.3-5.2-7.1-6.7c-3.5-1.3-5.6-3-8.3-6.7l-3.6-5l-2.7,5.3c-3.3,6.3-3.5,8.1-1.4,11.3
		c1.5,2.3,1.5,2.4-1.8,3c-4.6,0.9-5.5,4.6-2.6,11.1c2.3,5.2,2.1,6.2-1.1,4.5c-5.3-2.8-8.2,3.1-10,19.8c-1.1,10.1-1.1,13.8,0,20.8
		c1,6.6,1.1,9.9,0.2,14.7c-0.6,3.4-1.1,10.7-1,16.2c0,5.5-0.5,11.3-1.1,12.9c-0.9,2.2-0.9,4.7,0,10c1.4,8.7,0.9,37-0.7,38.6
		c-0.8,0.8-1.6,0.6-2.9-0.7c-2.1-2-11.3-16-13.9-21.1c-0.9-1.7-2-3.2-2.5-3.2s-2.1,2.6-3.7,5.8c-1.6,3.1-3,5.9-3.1,6.1
		c-0.2,0.2-1.1-0.3-2.1-1.3c-1.8-1.6-2.1-1.4-6.1,2.9c-2.3,2.5-4.6,4.5-5.2,4.5c-0.7,0-0.9,1-0.5,2.5c0.3,1.4,0.9,3.6,1.2,5
		c0.8,3.2-0.4,3.2-4.5-0.2c-2.4-2.1-3.4-3.9-3.8-7c-0.6-4.6-2.3-4.9-2.3-0.5c0,2.4-0.1,2.5-1.7,1c-0.9-1-2-4.5-2.5-7.9
		c-0.9-6.9-1.5-8.1-2.8-5.9c-4.3,7.5-13.8,20.5-15,20.5c-2.4,0-3.3-9.4-2.4-26.5c0.4-8.5,0.6-17.3,0.4-19.5
		c-0.5-6.9-0.5-14.4,0.2-34.2c0.6-17.2,0.9-20.1,3.4-27.6l2.7-8.5l-7.5-10.3c-4.2-5.7-8.3-12-9.1-14.1c-1.5-3.5-1.4-3.7,0.7-5.7
		l2.3-2.2l2.7,7.4c4.7,13,17.5,29.2,28.5,36.1c4.3,2.7,4.5,2.8,7.8,1.2c4.5-2.2,7.9-2,11.9,0.5c1.9,1.1,3.4,2.3,3.4,2.5
		c0,0.2-1.8,0.1-4-0.2c-6.1-1-10.7,0.3-15.2,4.4c-2.9,2.6-3.9,3.1-3.4,1.7c1.6-3.9,1.8-5.5,0.8-5.5c-0.6,0-4.1-2.4-7.9-5.4l-6.7-5.5
		l-1.9,4.7c-2.9,7.2-4.9,48.1-3,61.1c1.4,9.6,1.3,11.4-2.2,38.6c-0.5,3.9-0.4,3.9,4.6-4c2.9-4.4,4.7-8.1,4-8.3c-0.6-0.2,0-2.5,1.8-6
		c1.5-3.1,2.6-6.3,2.4-6.9c-0.3-0.7,0-1.3,0.7-1.3c0.6,0,0.9,0.4,0.6,0.9c-0.4,0.5-0.1,1.1,0.5,1.3s-0.2,2.5-2.2,5.6
		c-1.7,2.9-3,5.5-2.7,5.8c0.3,0.3,1.6-1.1,2.8-3.1c1.2-1.9,2.6-3.3,3.1-3c1.2,0.8,4,10.5,3.3,11.6c-1.2,2.1,0.8,0.6,4.2-2.8l3.6-3.8
		l-0.8,3c-1.2,4.2-1.1,12.2,0.1,13.4c0.7,0.7,1-1.2,1-5.5c0-5.7,0.3-6.8,2.4-8.5c3.5-2.8,5.3-2.5,4.1,0.7c-1.7,4.3-1.1,4.9,1.9,2
		c1.6-1.6,3.3-4.4,3.8-6.3c1-4.3,2.6-4.7,3.3-0.8l0.5,2.9l3.4-5.2c1.9-2.9,3.7-5,4.1-4.5c1.6,1.8,14,21.2,15.1,23.7
		c1.2,2.6,3.2,3.7,2.4,1.4c-0.2-0.7-1.4-8.8-2.5-18c-2-16.1-2-17.2-0.4-25.8c1-5.7,1.4-11.8,1.1-16.3c-0.3-4.6,0.1-9.5,1.1-13.5
		c1.3-5.7,1.3-7.1-0.2-14.8c-1.4-6.9-1.5-9.9-0.7-15.7c0.5-4,1.3-10,1.6-13.4c0.7-6.3,3.4-11.8,6.5-13.4c0.8-0.4,3.1-1.1,5-1.6
		l3.5-0.9l-4.3-1.9c-2.3-1-4.1-2.1-3.9-2.4c0.2-0.4,1-2.1,1.8-3.9c1-2.5,2.3-3.5,5.4-4.4l4-1.1l-3-1c-1.6-0.5-3.1-1.1-3.3-1.2
		c-0.1-0.1,1.2-3.5,3-7.5c2.6-5.8,3-7.4,1.8-7.8c-0.7-0.3-3.2-2.2-5.5-4.3c-3.8-3.5-4.7-3.9-9.7-3.9c-4.4,0-6.3-0.6-9.9-2.9
		c-4.1-2.8-4.7-2.9-9.3-1.9c-4.1,0.8-5.6,0.7-10.1-1c-5.3-2.1-5.5-2.1-10.6-0.3c-3.2,1.2-6.6,1.7-9,1.4l-3.9-0.6v6.7v6.6l-3.7-2
		c-2-1.1-3.9-1.8-4.1-1.6c-0.2,0.3,0.7,2.4,2.1,4.8c3.4,5.9,3.9,9,2.8,15.6c-0.6,3.1-1.3,8.8-1.7,12.5c-0.5,6.2-0.8,6.8-2.5,6.3
		c-6.6-2-6.3-2.2-3.5,1.9c2.6,3.7,3.8,12.5,1.7,12.5c-1.6,0-4.1-4.9-4.1-8.2c0-2.1-0.9-4.1-2.7-6l-2.6-2.7l4.1-0.7
		c2.3-0.4,4.2-0.8,4.2-1.1c0-0.2,0.7-6.7,1.6-14.5l1.5-14.1l-3.1-3.2c-3.1-3.1-3.1-4.5,0-4.5c2.5,0,4.7-2.2,5.4-5.4l0.7-2.8
		l-3.7,2.2c-2.3,1.5-5.5,2.4-8.8,2.5c-6.4,0.3-5.7,0-9.7,3.6c-3.9,3.5-6.9,4.9-10.6,4.9c-1.8,0-4,1.6-7.4,5.3
		c-3.3,3.7-6.2,5.8-9,6.6c-3.2,1-4.4,2-5.6,4.9c-1.9,4.6-3.8,6.8-8.4,9.8c-2.9,1.8-3.9,3.3-4.8,7.1c-0.8,3.1-2.5,6.2-5,8.8
		c-3.2,3.3-4,4.9-4.5,9.5c-0.4,3.8-1.5,6.8-3.6,9.8c-2.7,3.9-2.9,4.7-2.4,10c0.5,4.8,0.3,6.6-1.5,10.1c-2.2,4.1-2.2,4.4-0.5,9.3
		c1.4,4.3,1.5,5.9,0.5,10.4c-1.1,4.9-1,5.6,1.4,10.4c2,4,2.6,6.4,2.4,10.2c-0.3,4.4,0.1,5.5,2.9,8.9c2.2,2.5,3.6,5.6,4.2,9.1
		c0.8,4.3,1.7,5.9,5,8.8c2.5,2.2,4.8,5.5,5.9,8.5c1.5,4,2.8,5.5,6.2,7.5c2.5,1.5,5.7,4.6,7.4,7.3c2.4,3.8,3.9,5,7.9,6.3
		c3.1,1.1,6.5,3.3,9.2,6c3.6,3.7,4.8,4.4,8.2,4.4c2.9,0,5.3,0.9,9.1,3.5c4.4,3.1,5.8,3.5,11.3,3.5c4.5,0,7.2,0.6,9.3,1.9
		C138.2,2960.6,138.9,2960.6,144.5,2959.1z M209.4,2760.1c0.9,0,1.7-0.1,1.7-0.3c0-0.6-6.3-3.5-7.7-3.5c-1.6,0-1.6,0.5-0.2,3.1
		c0.7,1.4,1.6,1.8,2.7,1.3C206.8,2760.4,208.4,2760.1,209.4,2760.1z M132.9,2746.1c2.1-2.1,1.3-3.8-1.7-3.8c-3.7,0-5,1.9-2.6,3.7
		C130.9,2747.6,131.4,2747.6,132.9,2746.1z"/>
	<path class="st1" d="M131.7,2952.2c-3-2.4-3.4-5.7-0.8-8.8c2.3-2.9,8.1-3.8,10.7-1.6c1.1,0.9,1.3,1.4,0.5,1c-1.3-0.5-1.3-0.4,0,0.7
		c0.9,0.7,1.6,2.8,1.5,4.8C143.6,2954,136.8,2956.2,131.7,2952.2z M139.7,2949.8c0.3-1.3,0.4-3.4,0.2-4.6c-0.2-1.9-0.9-2.4-3.3-2.4
		c-2.4,0-2.9,0.4-2.7,1.9c0.2,1.1-0.1,1.5-0.7,1.1c-0.7-0.4-1.1,0.5-1.1,2.3c0,3.6,0.1,3.7,3.9,3.8
		C138.5,2952,139.3,2951.5,139.7,2949.8z"/>
	<path class="st0" d="M151.7,2951.8c-0.4-1.4-1.2-2.4-1.9-2.2c-0.7,0.1-1.1-0.6-0.9-1.7c0.2-1-0.7-2.9-1.9-4.2l-2.2-2.4h3.6
		c3.5,0,3.6,0.1,2.7,2.5c-0.9,2.5,0.2,3.6,1.5,1.5c0.5-0.8,1.1-0.7,2.1,0.1c1.1,0.9,1.5,0.8,1.9-0.3c0.3-0.8,0.5-2.1,0.3-2.8
		c-0.2-0.8,1-1.6,3-2c3.2-0.7,4.5,0.5,1.7,1.6c-0.8,0.4-1.2,1-0.9,1.5s0.1,0.9-0.4,0.9c-0.6,0-1.3,0.7-1.6,1.6
		c-0.5,1.2-0.1,1.4,1.5,0.9c1.5-0.5,2-0.3,1.7,0.6c-0.3,0.8-1.4,1.5-2.6,1.7c-2.5,0.4-2.6,0.6-1.3,3.1c0.8,1.4,0.5,1.7-2.4,1.9
		C152.8,2954.3,152.2,2954,151.7,2951.8z M154.8,2947.1c-1.8-1.1-3,0.7-2.2,3.3l0.7,2.2l1.3-2.4
		C155.6,2948.4,155.6,2947.6,154.8,2947.1z"/>
	<path class="st0" d="M166.4,2947.6c-0.2-3.2,0.2-6.2,0.9-7.1c1.6-1.9,5.4-3.3,7.2-2.6c1.7,0.7,4.9,8.1,4,9.5
		c-0.3,0.5-0.2,0.8,0.3,0.7c1.8-0.6,1.3,1.6-0.5,2.3c-1.5,0.6-1.9,0.2-1.9-1.9c-0.1-4.9-2-8.2-4.7-8.2c-2.6,0-4.8,2.1-2.8,2.8
		c0.8,0.2,1,1.3,0.6,2.9c-0.5,1.8-0.3,2.4,0.5,1.9c0.6-0.4,1.1-0.1,1.1,0.8c0,0.9,0.5,1.6,1.2,1.6c1.9,0-0.4,1.7-3.2,2.3
		C166.7,2953.2,166.6,2953,166.4,2947.6z"/>
	<path class="st1" d="M116.2,2949.3c-7.8-2.6-12.2-5-9.3-5c0.6,0,2.1-1.9,3.3-4.2c2-3.9,2-4.3,0.5-5.4c-2.5-1.8-4.9-1.1-5.1,1.6
		c-0.1,1.3-0.9,2.8-1.7,3.4c-0.8,0.6-1.3,1.7-1.1,2.4c0.3,0.6,0.1,1.2-0.4,1.2c-1.3-0.1-5.9-2.9-4.7-3c0.5,0,2.4-2,4.2-4.5
		c3.4-4.9,6.1-5.7,10-2.9c2.7,1.9,2.8,4.3,0.1,9.5c-1.9,3.8-1.9,4-0.2,3.7c1-0.2,2.4,0.3,3.1,1.2c1,1.3,1.1,1.2,0.6-0.5
		c-0.7-2-0.7-2,0.9,0c1.6,2,1.6,2,2.2,0c0.4-1.1,1.1-3.2,1.7-4.7c0.5-1.5,0.7-3.1,0.4-3.7c-1.1-1.6,0.8-2,3.9-0.7
		c2.8,1.2,2.9,1.3,0.9,2c-1.6,0.5-2,1.2-1.6,2.8c0.4,1.5,0.2,1.9-0.7,1.3c-1-0.6-1.1-0.2-0.6,1.5c0.5,1.5,0.4,2-0.4,1.6
		c-0.7-0.4-1.1,0.1-1.1,1.3c0,2.3,1.2,2.6,4,1.1c1.3-0.7,1.9-0.6,2.3,0.4c0.6,1.6-0.1,2.6-1.7,2.6
		C125.1,2952.2,120.8,2950.9,116.2,2949.3z"/>
	<path class="st0" d="M182.2,2943.7c-0.7-2.5-2-5.2-2.8-6c-1.3-1.2-1-1.6,2.1-2.9c4.9-2.1,8.9-1.9,11.1,0.5c1,1.1,1.4,2,0.9,2
		s-0.3,0.4,0.4,0.9c2.2,1.3-0.7,6-5,8.2c-2,1-4.1,1.9-4.5,1.9C183.9,2948.3,182.9,2946.3,182.2,2943.7z M191.1,2941.2
		c0-2.2-3.4-5.9-5.2-5.9c-0.7,0-1.9,0.4-2.6,0.9c-1.1,0.7-1.1,0.9,0.2,1.4c0.9,0.4,1.6,1.2,1.6,1.9c0,0.9-0.3,0.8-1-0.2
		c-1.5-2.4-1.2-0.4,0.6,3.4c1.6,3.3,1.8,3.4,4,1.9C190,2943.8,191.1,2942.2,191.1,2941.2z"/>
	<path class="st0" d="M198.3,2940.6c0.1-2.1-4-9.3-5.3-9.3c-1.7,0-0.9-1.8,1.5-3.3c2.3-1.5,2.4-1.5,2.8,0.8c0.3,1.6,0.1,2.2-0.6,1.9
		c-0.6-0.3,0,0.4,1.4,1.6c1.4,1.2,1.8,1.9,1,1.5c-0.8-0.4-0.4,0.3,1,1.5c1.4,1.2,1.9,1.8,1.1,1.4c-0.9-0.4-1.2-0.3-0.7,0.4
		c0.9,1.4,3.6,0.4,3.6-1.3c0-0.8,0.5-1.7,1.2-2.1c0.7-0.4,0.8-0.3,0.4,0.4c-0.4,0.7-0.2,1.2,0.3,1.2c0.6,0,1.1-0.5,1.1-1.1
		c0-0.5,0.5-0.7,1-0.4c2.4,1.5,0.7-1.8-3-5.6c-3.8-4-3.9-4.3-2.3-6.1c2.1-2.4,3.7-2.3,3,0.2c-0.3,1.3,0.3,2.4,1.9,3.5
		c1.4,0.9,2.2,2,1.9,2.4c-0.2,0.5,0.3,1.5,1.2,2.2c0.9,0.8,1.4,0.9,1,0.3c-0.4-0.7,0-1.4,0.8-1.8c0.8-0.3,1.5-1.2,1.5-2.1
		c0-1.7,0.9-1.9,2.9-0.6c1.7,1.1-0.9,3.6-11.6,11.1C199.9,2941.2,198.2,2941.9,198.3,2940.6z"/>
	<path class="st1" d="M87.7,2934.2c-2-1.6-2.4-2.4-1.6-3.4c0.6-0.7,0.8-2.5,0.4-4.1c-0.5-1.9-0.4-2.5,0.4-2c1.3,0.8,2.7-3.7,1.7-5.3
		c-1.1-1.8,2.1-1.2,3.8,0.7c2.2,2.5,2.1,3.5-0.2,2.9c-1.2-0.3-2.2,0.1-2.5,1c-0.8,2.1-0.8,2.2,1.4,1.6c1.3-0.4,2,0,2,0.9
		c0,1.1-0.7,1.4-2.5,1c-2-0.3-2.5,0-2.5,1.7c0,1.1,0.2,2.1,0.5,2.1c1.1,0,7.9-4,8.5-5.1c0.5-0.8,1.7-0.6,4.1,0.7
		c3.3,1.8,3.3,1.9,0.9,2.2c-1.4,0.1-3.6,0.5-5,0.8c-2.2,0.5-2.3,0.7-0.7,1.5c2.6,1.5,1.1,3-1.7,1.8c-1.7-0.8-2.9-0.8-4.2,0.1
		c-1.5,0.9-1.6,1-0.2,0.6c1.2-0.3,1.5-0.1,1.1,1C90.7,2936.7,90.9,2936.7,87.7,2934.2z"/>
	<path class="st0" d="M120.8,2909.1c-1.5-1.2-1.5-2.1-0.5-8.1c1-6.2,1.3-6.8,3.2-6.3c1.2,0.3,2.7,0.6,3.4,0.6c1.7,0,1.5,1.9-0.3,2.7
		c-0.9,0.3-2.1-0.2-2.9-1.2c-1-1.5-1.4-0.8-2.4,4.6c-1,5.6-1,6.4,0.6,7.5c0.9,0.7,1.4,1.4,1.1,1.4
		C122.7,2910.3,121.7,2909.7,120.8,2909.1z"/>
	<path class="st0" d="M172.2,2904.9c-1.8-3.1-2.9-6.1-2.5-7c0.3-0.9,2.4-2.1,4.6-2.7c4.7-1.2,5.8-0.3,5.7,4.6
		c-0.1,2.8-0.1,2.8-1.3-1c-0.9-3.2-1.3-3.6-1.9-2.1c-0.5,1.3-1.4,1.7-3.1,1.2c-1.2-0.3-2.6-0.3-2.9,0c-0.5,0.6,3.4,8.4,5.3,10.7
		c1.3,1.5,4-0.5,4.1-3.2c0.2-2.6,0.2-2.6,0.6-0.2c0.5,2.5-1.7,5.1-4.3,5.1C175.8,2910.3,173.9,2907.9,172.2,2904.9z"/>
	<path class="st1" d="M167.1,2861c0-2.7,2.8-5.7,5.4-5.7c1,0,2.3,1.4,3.1,3.3c1.3,3,1.2,3.2-0.8,3.9c-1.2,0.3-3.4,0.6-4.9,0.7
		C167.6,2863.3,167.1,2862.9,167.1,2861z"/>
	<path class="st1" d="M126.4,2861.6c-2.7-0.5-2.9-2-0.7-5.1c2.8-4,7.9-1.9,7.2,3C132.6,2861.9,130.7,2862.5,126.4,2861.6z"/>
	<path class="st1" d="M142.8,2843.4c-0.3-1.5,0.4-2.8,2.4-4.5c1.8-1.6,2.9-3.4,2.9-5c0-1.4,0.5-2.6,1-2.6c0.6,0,1,0.4,1,0.9
		s1.6,3.2,3.5,6.1c1.9,2.9,3.5,5.4,3.5,5.6c0,0.3-1.9-0.5-4.1-1.7l-4.1-2.1l-2.8,2.7C143.5,2845.3,143.3,2845.4,142.8,2843.4z"/>
</g>
<text transform="matrix(1 0 0 1 33.4209 21.6309)" class="st1 st2 st3">Auto</text>
<text transform="matrix(1 0 0 1 72.751 21.6309)" class="st0 st2 st3">Audit</text>
</svg>
