<?xml version="1.0" encoding="utf-8"?>
<!-- Generator: Adobe Illustrator 26.0.0, SVG Export Plug-In . SVG Version: 6.00 Build 0)  -->
<svg version="1.1" id="图层_1" xmlns="http://www.w3.org/2000/svg" xmlns:xlink="http://www.w3.org/1999/xlink" x="0px" y="0px"
	 viewBox="0 0 180 42" style="enable-background:new 0 0 180 42;" xml:space="preserve">
<style type="text/css">
	.st0{fill:#4155A4;}
	.st1{fill:#C02D6D;}
	.st2{fill:none;stroke:#BF2C6D;stroke-width:3;stroke-miterlimit:10;}
	.st3{fill:#BF2C6D;}
	.st4{fill:#4054A4;}
</style>
<g transform="translate(0.000000,300.000000) scale(0.100000,-0.100000)">
	<path class="st0" d="M763.1,2903c-4.2-2-6.6-2.5-9.9-2.1c-5.3,0.6-8.6-0.5-12.2-3.9c-1.5-1.4-4.3-2.7-6.5-3
		c-7.5-1-8.6-1.5-12.6-5.8c-2.7-3.1-5.2-4.7-8.1-5.5c-4.5-1.1-7.2-3.4-10.2-8.8c-1-1.8-3.6-3.9-5.7-4.9c-4.7-2.1-7.4-5.3-8.3-9.7
		c-0.4-2.1-2.4-4.8-5.6-7.7c-4.4-4-5.1-5.1-5.9-10.3c-0.7-4.2-1.8-6.8-3.9-9.3c-3.5-3.9-4.5-7.1-3.8-11.7c0.3-2.2-0.4-5-2.4-9.2
		c-2.6-5.4-2.8-6.4-1.8-9.9c1-3.7,0.9-5.6-0.7-14.9c-0.4-2.7-0.1-5.1,1.4-8.5c1.5-3.5,1.8-6.2,1.5-10.7c-0.4-5.4-0.2-6.4,2.4-10
		c2.2-2.9,3.1-5.6,3.6-9.8c0.5-5.2,1.1-6.4,5-10.6c3.2-3.4,4.7-6,5.2-8.8c0.7-4.5,2.8-7.2,7.6-10c1.7-1,4.1-3.8,5.4-6.3
		c2.8-5.5,4.9-7.4,9.8-9c2.5-0.8,4.6-2.5,6.7-5.4c3-4.4,5.7-6,12.1-7c2-0.4,4.7-1.8,6-3.2c3.5-3.8,7.2-5.4,12.5-5.4
		c3.3,0,6.1-0.8,9.2-2.6c4.1-2.4,5.1-2.6,11.3-2c5.2,0.6,7.5,0.3,9.8-0.8c3.9-2,8.4-2,12.3,0c2.4,1.2,4.6,1.4,9.4,0.9
		c5.9-0.6,6.8-0.4,11.8,2.4c4.1,2.4,6.6,3.1,10.5,3.1c4.6,0,5.6,0.4,9.4,3.9c2.4,2.2,5.7,4.2,7.7,4.5c6.3,1.3,8.8,2.7,11.5,6.8
		c1.9,2.8,4.2,4.7,8.1,6.4c5,2.2,5.8,3,7.9,7.9c1.6,3.5,3.4,5.9,5.2,6.9c4.4,2.2,7.1,5.7,8.2,10.5c0.6,2.7,2.2,5.7,4.5,8
		c4.1,4.2,5.6,7.8,5.6,13.2c0,2.8,0.9,5.1,3.1,8.2c2.9,3.9,3,4.6,2.4,10.2c-0.5,4.9-0.2,6.9,1.6,10.9c2.1,4.8,2.1,5,0.4,10.7
		c-1.5,4.8-1.6,6.7-0.7,11.1c1,4.9,0.9,5.7-1.5,10.3c-2,3.8-2.7,6.5-2.7,11.1c-0.1,5.6-0.4,6.5-3.8,10.2c-2.7,3-3.8,5.3-4.3,8.9
		c-0.9,5.8-2.5,8.6-6.5,10.9c-1.9,1.2-3.6,3.4-4.7,6.4c-2.1,5.8-3.8,7.7-9.4,10.6c-3,1.5-5,3.3-5.8,5.2c-1.8,4.3-4.9,6.8-10,8.2
		c-2.9,0.8-5.5,2.4-7.5,4.7c-3.6,4.1-8.1,6.3-12.9,6.3c-2.3,0-4.7,1-7.2,3c-4.6,3.7-7.3,4.4-12.6,3.6c-3.1-0.5-5-0.1-9.1,2l-5.1,2.6
		l-6.2-1.7c-4.2-1.1-6.9-1.3-8.5-0.7C770.2,2905.6,768.5,2905.5,763.1,2903z M774.5,2896.4c3.5-0.9,5.6-0.9,9.9,0.2
		c5.1,1.2,5.8,1.1,10.2-1c3.8-1.8,5.6-2.1,10-1.6c4.7,0.5,5.7,0.3,8.2-1.8c4.3-3.6,6.8-4.6,11.3-4.6c3.7,0,4.7-0.6,8-4.1
		c2.5-2.8,5.4-4.6,9.1-5.8c4.5-1.5,5.8-2.5,7.9-6.2c1.8-3.1,4.2-5.3,7.8-7.2c4.4-2.4,5.3-3.4,6.3-7c0.8-2.9,2.6-5.6,5.9-8.7
		c4-3.8,4.9-5.3,5.5-9.3c0.5-3.5,1.6-5.9,4.1-8.6c3-3.4,3.4-4.4,3.4-9.6c0-4.5,0.6-6.9,2.6-10.3c2.5-4.2,2.6-4.8,1.5-9.6
		c-0.9-4.3-0.9-5.9,0.5-9.9c0.9-2.6,1.4-5.5,1.1-6.5c-0.3-0.9-1.3-3.6-2.1-5.9c-1.1-3.1-1.3-5.4-0.7-8.7c0.7-4,0.5-4.9-2.2-9.1
		c-2-3.1-3.2-6.3-3.5-9.8c-0.4-4.2-1.2-5.9-4.2-9.3c-2.4-2.6-4.1-5.8-4.9-9.1c-1-4.2-2-5.5-5.6-8.1c-2.7-1.9-5.4-5-6.9-8
		c-2.1-4.1-3.3-5.2-7.1-6.7c-3.5-1.3-5.6-3-8.3-6.7l-3.6-5l-2.7,5.3c-3.3,6.3-3.5,8.1-1.4,11.3c1.5,2.3,1.5,2.4-1.8,3
		c-4.6,0.9-5.5,4.6-2.6,11.1c2.3,5.2,2.1,6.2-1.1,4.5c-5.3-2.8-8.2,3.1-10,19.8c-1.1,10.1-1.1,13.8,0,20.8c1,6.6,1.1,9.9,0.2,14.7
		c-0.6,3.4-1.1,10.7-1,16.2c0,5.5-0.5,11.3-1.1,12.9c-0.9,2.2-0.9,4.7,0,10c1.4,8.7,0.9,37-0.7,38.6c-0.8,0.8-1.6,0.6-2.9-0.7
		c-2.1-2-11.3-16-13.9-21.1c-0.9-1.7-2-3.2-2.5-3.2s-2.1,2.6-3.7,5.8c-1.6,3.1-3,5.9-3.1,6.1c-0.2,0.2-1.1-0.3-2.1-1.3
		c-1.8-1.6-2.1-1.4-6.1,2.9c-2.3,2.5-4.6,4.5-5.2,4.5c-0.7,0-0.9,1-0.5,2.5c0.3,1.4,0.9,3.6,1.2,5c0.8,3.2-0.4,3.2-4.5-0.2
		c-2.4-2.1-3.4-3.9-3.8-7c-0.6-4.6-2.3-4.9-2.3-0.5c0,2.4-0.1,2.5-1.7,1c-0.9-1-2-4.5-2.5-7.9c-0.9-6.9-1.5-8.1-2.8-5.9
		c-4.3,7.5-13.8,20.5-15,20.5c-2.4,0-3.3-9.4-2.4-26.5c0.4-8.5,0.6-17.3,0.4-19.5c-0.5-6.9-0.5-14.4,0.2-34.2
		c0.6-17.2,0.9-20.1,3.4-27.6l2.7-8.5l-7.5-10.3c-4.2-5.7-8.3-12-9.1-14.1c-1.5-3.5-1.4-3.7,0.7-5.7l2.3-2.2l2.7,7.4
		c4.7,13,17.5,29.2,28.5,36.1c4.3,2.7,4.5,2.8,7.8,1.2c4.5-2.2,7.9-2,11.9,0.5c1.9,1.1,3.4,2.3,3.4,2.5s-1.8,0.1-4-0.2
		c-6.1-1-10.7,0.3-15.2,4.4c-2.9,2.6-3.9,3.1-3.4,1.7c1.6-3.9,1.8-5.5,0.8-5.5c-0.6,0-4.1-2.4-7.9-5.4l-6.7-5.5l-1.9,4.7
		c-2.9,7.2-4.9,48.1-3,61.1c1.4,9.6,1.3,11.4-2.2,38.6c-0.5,3.9-0.4,3.9,4.6-4c2.9-4.4,4.7-8.1,4-8.3c-0.6-0.2,0-2.5,1.8-6
		c1.5-3.1,2.6-6.3,2.4-6.9c-0.3-0.7,0-1.3,0.7-1.3c0.6,0,0.9,0.4,0.6,0.9c-0.4,0.5-0.1,1.1,0.5,1.3c0.6,0.2-0.2,2.5-2.2,5.6
		c-1.7,2.9-3,5.5-2.7,5.8s1.6-1.1,2.8-3.1c1.2-1.9,2.6-3.3,3.1-3c1.2,0.8,4,10.5,3.3,11.6c-1.2,2.1,0.8,0.6,4.2-2.8l3.6-3.8l-0.8,3
		c-1.2,4.2-1.1,12.2,0.1,13.4c0.7,0.7,1-1.2,1-5.5c0-5.7,0.3-6.8,2.4-8.5c3.5-2.8,5.3-2.5,4.1,0.7c-1.7,4.3-1.1,4.9,1.9,2
		c1.6-1.6,3.3-4.4,3.8-6.3c1-4.3,2.6-4.7,3.3-0.8l0.5,2.9l3.4-5.2c1.9-2.9,3.7-5,4.1-4.5c1.6,1.8,14,21.2,15.1,23.7
		c1.2,2.6,3.2,3.7,2.4,1.4c-0.2-0.7-1.4-8.8-2.5-18c-2-16.1-2-17.2-0.4-25.8c1-5.7,1.4-11.8,1.1-16.3c-0.3-4.6,0.1-9.5,1.1-13.5
		c1.3-5.7,1.3-7.1-0.2-14.8c-1.4-6.9-1.5-9.9-0.7-15.7c0.5-4,1.3-10,1.6-13.4c0.7-6.3,3.4-11.8,6.5-13.4c0.8-0.4,3.1-1.1,5-1.6
		l3.5-0.9l-4.3-1.9c-2.3-1-4.1-2.1-3.9-2.4c0.2-0.4,1-2.1,1.8-3.9c1-2.5,2.3-3.5,5.4-4.4l4-1.1l-3-1c-1.6-0.5-3.1-1.1-3.3-1.2
		c-0.1-0.1,1.2-3.5,3-7.5c2.6-5.8,3-7.4,1.8-7.8c-0.7-0.3-3.2-2.2-5.5-4.3c-3.8-3.5-4.7-3.9-9.7-3.9c-4.4,0-6.3-0.6-9.9-2.9
		c-4.1-2.8-4.7-2.9-9.3-1.9c-4.1,0.8-5.6,0.7-10.1-1c-5.3-2.1-5.5-2.1-10.6-0.3c-3.2,1.2-6.6,1.7-9,1.4l-3.9-0.6v6.7v6.6l-3.7-2
		c-2-1.1-3.9-1.8-4.1-1.6c-0.2,0.3,0.7,2.4,2.1,4.8c3.4,5.9,3.9,9,2.8,15.6c-0.6,3.1-1.3,8.8-1.7,12.5c-0.5,6.2-0.8,6.8-2.5,6.3
		c-6.6-2-6.3-2.2-3.5,1.9c2.6,3.7,3.8,12.5,1.7,12.5c-1.6,0-4.1-4.9-4.1-8.2c0-2.1-0.9-4.1-2.7-6l-2.6-2.7l4.1-0.7
		c2.3-0.4,4.2-0.8,4.2-1.1c0-0.2,0.7-6.7,1.6-14.5l1.5-14.1l-3.1-3.2c-3.1-3.1-3.1-4.5,0-4.5c2.5,0,4.7-2.2,5.4-5.4l0.7-2.8
		l-3.7,2.2c-2.3,1.5-5.5,2.4-8.8,2.5c-6.4,0.3-5.7,0-9.7,3.6c-3.9,3.5-6.9,4.9-10.6,4.9c-1.8,0-4,1.6-7.4,5.3
		c-3.3,3.7-6.2,5.8-9,6.6c-3.2,1-4.4,2-5.6,4.9c-1.9,4.6-3.8,6.8-8.4,9.8c-2.9,1.8-3.9,3.3-4.8,7.1c-0.8,3.1-2.5,6.2-5,8.8
		c-3.2,3.3-4,4.9-4.5,9.5c-0.4,3.8-1.5,6.8-3.6,9.8c-2.7,3.9-2.9,4.7-2.4,10c0.5,4.8,0.3,6.6-1.5,10.1c-2.2,4.1-2.2,4.4-0.5,9.3
		c1.4,4.3,1.5,5.9,0.5,10.4c-1.1,4.9-1,5.6,1.4,10.4c2,4,2.6,6.4,2.4,10.2c-0.3,4.4,0.1,5.5,2.9,8.9c2.2,2.5,3.6,5.6,4.2,9.1
		c0.8,4.3,1.7,5.9,5,8.8c2.5,2.2,4.8,5.5,5.9,8.5c1.5,4,2.8,5.5,6.2,7.5c2.5,1.5,5.7,4.6,7.4,7.3c2.4,3.8,3.9,5,7.9,6.3
		c3.1,1.1,6.5,3.3,9.2,6c3.6,3.7,4.8,4.4,8.2,4.4c2.9,0,5.3,0.9,9.1,3.5c4.4,3.1,5.8,3.5,11.3,3.5c4.5,0,7.2,0.6,9.3,1.9
		C768.2,2897.9,768.9,2897.9,774.5,2896.4z M839.4,2697.4c0.9,0,1.7-0.1,1.7-0.3c0-0.6-6.3-3.5-7.7-3.5c-1.6,0-1.6,0.5-0.2,3.1
		c0.7,1.4,1.6,1.8,2.7,1.3C836.8,2697.7,838.4,2697.4,839.4,2697.4z M762.9,2683.4c2.1-2.1,1.3-3.8-1.7-3.8c-3.7,0-5,1.9-2.6,3.7
		C760.9,2684.9,761.4,2684.9,762.9,2683.4z"/>
	<path class="st0" d="M750.8,2846.4c-1.5-1.2-1.5-2.1-0.5-8.1c1-6.2,1.3-6.8,3.2-6.3c1.2,0.3,2.7,0.6,3.4,0.6c1.7,0,1.5,1.9-0.3,2.7
		c-0.9,0.3-2.1-0.2-2.9-1.2c-1-1.5-1.4-0.8-2.4,4.6c-1,5.6-1,6.4,0.6,7.5c0.9,0.7,1.4,1.4,1.1,1.4S751.7,2847,750.8,2846.4z"/>
	<path class="st0" d="M802.2,2842.2c-1.8-3.1-2.9-6.1-2.5-7c0.3-0.9,2.4-2.1,4.6-2.7c4.7-1.2,5.8-0.3,5.7,4.6
		c-0.1,2.8-0.1,2.8-1.3-1c-0.9-3.2-1.3-3.6-1.9-2.1c-0.5,1.3-1.4,1.7-3.1,1.2c-1.2-0.3-2.6-0.3-2.9,0c-0.5,0.6,3.4,8.4,5.3,10.7
		c1.3,1.5,4-0.5,4.1-3.2c0.2-2.6,0.2-2.6,0.6-0.2c0.5,2.5-1.7,5.1-4.3,5.1C805.8,2847.6,803.9,2845.2,802.2,2842.2z"/>
	<path class="st1" d="M797.1,2798.3c0-2.7,2.8-5.7,5.4-5.7c1,0,2.3,1.4,3.1,3.3c1.3,3,1.2,3.2-0.8,3.9c-1.2,0.3-3.4,0.6-4.9,0.7
		C797.6,2800.6,797.1,2800.2,797.1,2798.3z"/>
	<path class="st1" d="M756.4,2798.9c-2.7-0.5-2.9-2-0.7-5.1c2.8-4,7.9-1.9,7.2,3C762.6,2799.2,760.7,2799.8,756.4,2798.9z"/>
	<path class="st1" d="M772.8,2780.7c-0.3-1.5,0.4-2.8,2.4-4.5c1.8-1.6,2.9-3.4,2.9-5c0-1.4,0.5-2.6,1-2.6c0.6,0,1,0.4,1,0.9
		s1.6,3.2,3.5,6.1c1.9,2.9,3.5,5.4,3.5,5.6c0,0.3-1.9-0.5-4.1-1.7l-4.1-2.1l-2.8,2.7C773.5,2782.6,773.3,2782.7,772.8,2780.7z"/>
</g>
<circle class="st2" cx="78" cy="21" r="11.8"/>
<g>
	<path class="st3" d="M18.9,12l-1.4,1.6l2.2,6l0.5-0.3l-2-5.4l1.4-1.7l0.4,0.2L18.7,14l1.9,5.1c0.1-0.1,0.2-0.1,0.2-0.2l0.5-0.4
		c0.3-0.2,0.4-0.4,0.5-0.5c0.2,1,0.6,2,1.1,2.8c-0.3,0-0.5,0-0.6,0c-0.9,0-1.5,0.1-1.9,0.4l2.5,6.7l2.1,1.6H18l1.9-1.6l-1.5-4
		c-1,1-1.8,2-2.3,2.9l-0.3-0.1c0.5-0.9,1.3-1.9,2.4-3l0.1-0.1L18,23c-1.1,0.9-2,2-2.7,3.1l-0.2-0.4c-0.5-0.8-1.1-1.6-1.8-2.6
		L13.1,23c-0.7,1.6-1.1,2.8-1.1,3.8c0,0.6,0.1,1.1,0.3,1.5c0.2,0.4,0.7,1.1,1.4,2c0.1,0.1,0.2,0.2,0.3,0.4H6.7l-0.3-0.4h7L13.1,30
		c-0.6-0.7-1-1.3-1.2-1.7c-0.2-0.4-0.3-0.9-0.3-1.4c0-0.9,0.4-2.3,1.1-4.2l-0.6-0.6c-0.1,0.3-0.3,0.7-0.5,1.3l-0.5,1.4
		c-0.2,0.7-0.4,1.4-0.4,1.9c0,0.5,0.1,0.9,0.3,1.3c0.2,0.3,0.5,0.8,1.1,1.4c0.1,0.1,0.1,0.1,0.2,0.3H5.7C7,28.8,8,27.9,8.8,26.8
		c0.8-1.1,1.5-2.9,2.3-5.3l0.1-0.2c-0.5-0.4-1.2-0.7-2.1-0.8c0.5-0.7,0.9-1.5,1.2-2.3c0.1,0.1,0.2,0.2,0.2,0.2L11,19
		c0.2,0.2,0.5,0.4,0.8,0.6l0.2-0.6l-0.2-0.1c-0.5-0.4-0.8-0.7-1.1-1l-0.1-0.1l0.2-0.3c0.5,0.3,0.9,0.7,1.4,1.1l1.9-5.1L12.6,12H18.9
		z M14.9,14.8l-2.2,5.7c0.7,0.7,1.3,1.4,1.8,2.1l0.6,0.9c0,0,0.1,0.1,0.1,0.2c0.1-0.1,0.1-0.1,0.1-0.2l0.2-0.2c0,0,0.1-0.1,0.2-0.2
		c-0.6-1-1.4-1.9-2.2-2.7l1.8-4.6L14.9,14.8z M15.5,16.4l-1.5,4c0.1,0.1,0.1,0.1,0.1,0.2l0.6,0.6c0.3,0.3,0.7,0.8,1.1,1.5l0.1,0.2
		c0.4-0.5,0.9-1,1.4-1.5L15.5,16.4z M23,18.7c0.2,0.8,0.7,1.9,1.5,3.4c-0.2,0-0.3,0-0.3,0L23,21.9c-0.5,0-0.9-0.1-1.1-0.1
		c0,0-0.1,0-0.3,0l2.3,6.1l3,2.7h-7.9l-0.3-0.4h7.3l-2.5-2.2l-2.4-6.4c0.3-0.1,0.7-0.1,1.1-0.1c0.5,0,1,0,1.6,0.1l-0.2-0.3
		c-0.6-1.1-1-2-1.2-2.9L23,18.7z"/>
	<path class="st3" d="M43.1,12l-2.4,2v8.8c0,1.6-0.1,2.8-0.2,3.5c-0.1,0.7-0.3,1.3-0.6,1.8c-0.8,1.2-2.3,1.8-4.6,1.8
		c-2.4,0-4.1-0.6-5-1.8c-0.8-0.9-1.1-2.7-1.1-5.3v-9.1L27.3,12h6.5l-1.9,1.8v8.9l0,2.1c0,1.4,0.3,2.3,0.8,2.9
		c0.6,0.6,1.5,0.9,2.9,0.9c1.5,0,2.5-0.4,3-1.3c0.4-0.7,0.7-2.2,0.7-4.5l0.1-8.8l-2.1-2H43.1z M43.6,12.9l-1.9,1.5v8.5
		c0,2.8-0.2,4.6-0.7,5.4c-0.9,1.7-2.6,2.6-5.2,2.6c-2.2,0-3.9-0.6-5.1-1.7l0.1,0.1l0.5,0.3c1.1,0.7,2.6,1,4.3,1c2.5,0,4.2-0.8,5-2.4
		c0.4-0.9,0.7-2.6,0.7-5.2v-8.7l2-1.7L43.6,12.9z M34.4,12.7L33,14.1v10.2l0,0.9l0.4,1.7c0.2,0.3,0.6,0.8,1.2,1.3l0,0.1
		c-0.8-0.3-1.3-0.8-1.6-1.4c-0.3-0.6-0.4-1.5-0.4-2.7V13.9l1.5-1.5L34.4,12.7z"/>
	<path class="st3" d="M59.7,12c-0.1,0.2-0.1,0.3-0.2,0.3l-0.9,1.6c-0.3,0.6-0.6,1.3-0.9,2.2l0,0.1l-0.1-0.1l0-0.2
		c-0.3-1-0.6-1.8-1.1-2.2c-0.5-0.4-1.2-0.6-2.2-0.6c-0.4,0-0.8,0-1.2,0.1h-0.2V28l1.6,1.5h-6.2l1.9-1.6V14.3l-1,0
		c-0.9,0-1.6,0.2-2,0.6s-0.6,1-0.7,1.9H46c0.1-1.1,0.4-1.8,0.8-2.2S48,14,49.1,14l0.8,0H50v-0.7c-0.5-0.1-0.9-0.1-1.3-0.1
		c-1.2,0-2,0.2-2.5,0.7s-0.8,1.3-0.9,2.4h-0.2c-0.4-1.3-1-2.7-1.8-4.2L43.2,12H59.7z M56.9,15c-0.7-0.5-1.5-0.7-2.5-0.7
		c-0.2,0-0.4,0-0.7,0l0.1,13.7l2.2,2.6h-7l-0.3-0.4h6.5l-1.8-2.1V13.9l0.7,0c0.9,0,1.5,0.1,1.9,0.2S56.7,14.6,56.9,15z M60.6,12.8
		c-0.6,0.8-1.3,2.1-2,4L58.5,17l-0.3-0.3l0-0.1c0.7-1.9,1.3-3.2,2-3.9l0.1-0.1L60.6,12.8z"/>
</g>
<g>
	<path class="st4" d="M107.2,12l-1.4,1.6l2.2,6l0.5-0.3l-2-5.4l1.4-1.7l0.4,0.2L107,14l1.9,5.1c0.1-0.1,0.2-0.1,0.2-0.2l0.5-0.4
		c0.3-0.2,0.4-0.4,0.5-0.5c0.2,1,0.6,2,1.1,2.8c-0.3,0-0.5,0-0.6,0c-0.9,0-1.5,0.1-1.9,0.4l2.5,6.7l2.1,1.6h-6.9l1.9-1.6l-1.5-4
		c-1,1-1.8,2-2.3,2.9l-0.3-0.1c0.5-0.9,1.3-1.9,2.4-3l0.1-0.1l-0.3-0.6c-1.1,0.9-2,2-2.7,3.1l-0.2-0.4c-0.5-0.8-1.1-1.6-1.8-2.6
		l-0.1-0.2c-0.7,1.6-1.1,2.8-1.1,3.8c0,0.6,0.1,1.1,0.3,1.5s0.7,1.1,1.4,2c0.1,0.1,0.2,0.2,0.3,0.4H95l-0.3-0.4h7l-0.2-0.3
		c-0.6-0.7-1-1.3-1.2-1.7s-0.3-0.9-0.3-1.4c0-0.9,0.4-2.3,1.1-4.2l-0.6-0.6c-0.1,0.3-0.3,0.7-0.5,1.3l-0.5,1.4
		c-0.2,0.7-0.4,1.4-0.4,1.9c0,0.5,0.1,0.9,0.3,1.3s0.5,0.8,1.1,1.4c0.1,0.1,0.1,0.1,0.2,0.3H94c1.3-0.7,2.3-1.6,3.1-2.7
		s1.5-2.9,2.3-5.3l0.1-0.2c-0.5-0.4-1.2-0.7-2.1-0.8c0.5-0.7,0.9-1.5,1.2-2.3c0.1,0.1,0.2,0.2,0.2,0.2l0.6,0.6
		c0.2,0.2,0.5,0.4,0.8,0.6l0.2-0.6l-0.2-0.1c-0.5-0.4-0.8-0.7-1.1-1l-0.1-0.1l0.2-0.3c0.5,0.3,0.9,0.7,1.4,1.1l1.9-5.1l-1.4-1.6
		H107.2z M103.2,14.8l-2.2,5.7c0.7,0.7,1.3,1.4,1.8,2.1l0.6,0.9c0,0,0.1,0.1,0.1,0.2c0.1-0.1,0.1-0.1,0.1-0.2l0.2-0.2
		c0,0,0.1-0.1,0.2-0.2c-0.6-1-1.4-1.9-2.2-2.7l1.8-4.6L103.2,14.8z M103.8,16.4l-1.5,4c0.1,0.1,0.1,0.1,0.1,0.2l0.6,0.6
		c0.3,0.3,0.7,0.8,1.1,1.5l0.1,0.2c0.4-0.5,0.9-1,1.4-1.5L103.8,16.4z M111.2,18.7c0.2,0.8,0.7,1.9,1.5,3.4c-0.2,0-0.3,0-0.3,0
		l-1.1-0.1c-0.5,0-0.9-0.1-1.1-0.1c0,0-0.1,0-0.3,0l2.3,6.1l3,2.7h-7.9l-0.3-0.4h7.3l-2.5-2.2l-2.4-6.4c0.3-0.1,0.7-0.1,1.1-0.1
		c0.5,0,1,0,1.6,0.1l-0.2-0.3c-0.6-1.1-1-2-1.2-2.9L111.2,18.7z"/>
	<path class="st4" d="M131.4,12l-2.4,2v8.8c0,1.6-0.1,2.8-0.2,3.5s-0.3,1.3-0.6,1.8c-0.8,1.2-2.3,1.8-4.6,1.8c-2.4,0-4.1-0.6-5-1.8
		c-0.8-0.9-1.1-2.7-1.1-5.3v-9.1l-1.9-1.7h6.5l-1.9,1.8v8.9l0,2.1c0,1.4,0.3,2.3,0.8,2.9s1.5,0.9,2.9,0.9c1.5,0,2.5-0.4,3-1.3
		c0.4-0.7,0.7-2.2,0.7-4.5l0.1-8.8l-2.1-2H131.4z M131.9,12.9l-1.9,1.5v8.5c0,2.8-0.2,4.6-0.7,5.4c-0.9,1.7-2.6,2.6-5.2,2.6
		c-2.2,0-3.9-0.6-5.1-1.7l0.1,0.1l0.5,0.3c1.1,0.7,2.6,1,4.3,1c2.5,0,4.2-0.8,5-2.4c0.4-0.9,0.7-2.6,0.7-5.2v-8.7l2-1.7L131.9,12.9z
		 M122.7,12.7l-1.3,1.4v10.2l0,0.9l0.4,1.7c0.2,0.3,0.6,0.8,1.2,1.3l0,0.1c-0.8-0.3-1.3-0.8-1.6-1.4s-0.4-1.5-0.4-2.7V13.9l1.5-1.5
		L122.7,12.7z"/>
	<path class="st4" d="M133.1,12h5.4c2.6,0,4.6,0.5,5.9,1.5c1.9,1.5,2.8,3.8,2.8,7c0,3.3-0.8,5.7-2.5,7.2c-0.7,0.7-1.6,1.1-2.5,1.4
		s-2.2,0.4-3.7,0.4h-5.8l1.9-1.4V13.6L133.1,12z M133.6,30.6l-0.2-0.4h5c2.5,0,4.3-0.3,5.6-1c2.7-1.5,4.1-4.3,4.1-8.5
		c0-2.8-0.6-4.9-1.8-6.2l-0.5-0.6c0,0-0.1-0.1-0.2-0.2c1.9,1.2,2.9,3.5,2.9,7c0,3.6-1,6.3-2.9,8c-1.5,1.3-3.9,2-7.2,2H133.6z
		 M137.3,13.1v15.3h0.8V14c0.5-0.1,0.9-0.1,1.3-0.1c0.7,0,1.3,0.1,1.8,0.2s0.9,0.4,1.3,0.8c-1-0.5-2-0.7-3.1-0.7
		c-0.2,0-0.5,0-0.9,0.1v14.1c1,0,1.8-0.1,2.3-0.3s1-0.5,1.5-1c1.3-1.3,2-3.6,2-6.8c0-3.1-0.7-5.2-2.1-6.3c-0.9-0.7-2.2-1-4.1-1
		H137.3z"/>
	<path class="st4" d="M149.6,12h6.5l-1.8,1.9v14.2l1.7,1.4h-6.4l1.9-1.6V13.7L149.6,12z M156.7,12.8l-1.4,1.4v13.9l2.3,2.6h-7.1
		l-0.3-0.4h6.6l-1.9-2.1V14l1.5-1.5L156.7,12.8z"/>
	<path class="st4" d="M173.4,12c-0.1,0.2-0.1,0.3-0.2,0.3l-0.9,1.6c-0.3,0.6-0.6,1.3-0.9,2.2l0,0.1l-0.1-0.1l0-0.2
		c-0.3-1-0.6-1.8-1.1-2.2s-1.2-0.6-2.2-0.6c-0.4,0-0.8,0-1.2,0.1h-0.2V28l1.6,1.5h-6.2l1.9-1.6V14.3l-1,0c-0.9,0-1.6,0.2-2,0.6
		s-0.6,1-0.7,1.9h-0.4c0.1-1.1,0.4-1.8,0.8-2.2s1.2-0.6,2.2-0.6l0.8,0h0.2v-0.7c-0.5-0.1-0.9-0.1-1.3-0.1c-1.2,0-2,0.2-2.5,0.7
		s-0.8,1.3-0.9,2.4h-0.2c-0.4-1.3-1-2.7-1.8-4.2L157,12H173.4z M170.7,15c-0.7-0.5-1.5-0.7-2.5-0.7c-0.2,0-0.4,0-0.7,0l0.1,13.7
		l2.2,2.6h-7l-0.3-0.4h6.5l-1.8-2.1V13.9l0.7,0c0.9,0,1.5,0.1,1.9,0.2S170.5,14.6,170.7,15z M174.3,12.8c-0.6,0.8-1.3,2.1-2,4
		l-0.1,0.1l-0.3-0.3l0-0.1c0.7-1.9,1.3-3.2,2-3.9l0.1-0.1L174.3,12.8z"/>
</g>
</svg>
