<svg width="208" height="212" viewBox="0 0 208 212" fill="none" xmlns="http://www.w3.org/2000/svg">
<path opacity="0.2" d="M109.273 17.6219L176.169 56.2442C179.432 58.1281 181.442 61.6098 181.442 65.3777V142.622C181.442 146.39 179.432 149.872 176.169 151.756L109.273 190.378C106.01 192.262 101.99 192.262 98.7267 190.378L31.831 151.756C28.5679 149.872 26.5577 146.39 26.5577 142.622V65.3777C26.5577 61.6098 28.5679 58.1281 31.831 56.2442L98.7267 17.6219C101.99 15.7379 106.01 15.7379 109.273 17.6219Z" stroke="#3ABA6F"/>
<g filter="url(#filter0_d_221_2648)">
<path d="M98.7674 27.021C102.005 25.1516 105.995 25.1516 109.233 27.021L168.049 60.979C171.287 62.8484 173.282 66.3032 173.282 70.042V137.958C173.282 141.697 171.287 145.152 168.049 147.021L109.233 180.979C105.995 182.848 102.005 182.848 98.7674 180.979L39.9505 147.021C36.7126 145.152 34.718 141.697 34.718 137.958V70.042C34.718 66.3032 36.7126 62.8484 39.9505 60.979L98.7674 27.021Z" fill="white"/>
</g>
<g filter="url(#filter1_d_221_2648)">
<path d="M99 41.8868C102.094 40.1004 105.906 40.1004 109 41.8868L155.292 68.6132C158.386 70.3996 160.292 73.7008 160.292 77.2735V130.726C160.292 134.299 158.386 137.6 155.292 139.387L109 166.113C105.906 167.9 102.094 167.9 99 166.113L52.7083 139.387C49.6143 137.6 47.7083 134.299 47.7083 130.726V77.2735C47.7083 73.7008 49.6143 70.3996 52.7083 68.6132L99 41.8868Z" fill="white"/>
<path d="M107.75 44.0518L154.042 70.7783C156.362 72.1181 157.792 74.594 157.792 77.2735V130.726C157.792 133.406 156.362 135.882 154.042 137.222L107.75 163.948C105.429 165.288 102.571 165.288 100.25 163.948L53.9583 137.222C51.6378 135.882 50.2083 133.406 50.2083 130.727V77.2735C50.2083 74.594 51.6378 72.1181 53.9583 70.7783L100.25 44.0518C102.571 42.7121 105.429 42.7121 107.75 44.0518Z" stroke="#3ABA6F" stroke-width="5"/>
</g>
<path d="M104 75.5834L82.7728 80.3005C82.1991 80.4281 81.686 80.7474 81.3183 81.2058C80.9506 81.6641 80.7501 82.2342 80.75 82.8219V108.624C80.7506 111.175 81.3809 113.687 82.5851 115.936C83.7892 118.185 85.5299 120.103 87.6527 121.518L104 132.417L120.347 121.518C122.47 120.102 124.211 118.185 125.416 115.935C126.62 113.685 127.25 111.173 127.25 108.622V82.8219C127.25 82.2342 127.049 81.6641 126.682 81.2058C126.314 80.7474 125.801 80.4281 125.227 80.3005L104 75.5834Z" fill="#3ABA6F"/>
<path fill-rule="evenodd" clip-rule="evenodd" d="M91.7068 102.949L95.4271 99.2292L101.628 105.43L114.029 93.0286L117.749 96.749L101.628 112.87L91.7068 102.949Z" fill="white"/>
<defs>
<filter id="filter0_d_221_2648" x="13.7878" y="13.0609" width="180.424" height="198.622" filterUnits="userSpaceOnUse" color-interpolation-filters="sRGB">
<feFlood flood-opacity="0" result="BackgroundImageFix"/>
<feColorMatrix in="SourceAlpha" type="matrix" values="0 0 0 0 0 0 0 0 0 0 0 0 0 0 0 0 0 0 127 0" result="hardAlpha"/>
<feOffset dy="8.37209"/>
<feGaussianBlur stdDeviation="10.4651"/>
<feComposite in2="hardAlpha" operator="out"/>
<feColorMatrix type="matrix" values="0 0 0 0 0.227451 0 0 0 0 0.729412 0 0 0 0 0.435294 0 0 0 0.15 0"/>
<feBlend mode="normal" in2="BackgroundImageFix" result="effect1_dropShadow_221_2648"/>
<feBlend mode="normal" in="SourceGraphic" in2="effect1_dropShadow_221_2648" result="shape"/>
</filter>
<filter id="filter1_d_221_2648" x="37.7084" y="34.547" width="132.583" height="146.906" filterUnits="userSpaceOnUse" color-interpolation-filters="sRGB">
<feFlood flood-opacity="0" result="BackgroundImageFix"/>
<feColorMatrix in="SourceAlpha" type="matrix" values="0 0 0 0 0 0 0 0 0 0 0 0 0 0 0 0 0 0 127 0" result="hardAlpha"/>
<feOffset dy="4"/>
<feGaussianBlur stdDeviation="5"/>
<feComposite in2="hardAlpha" operator="out"/>
<feColorMatrix type="matrix" values="0 0 0 0 0.227451 0 0 0 0 0.729412 0 0 0 0 0.435294 0 0 0 0.3 0"/>
<feBlend mode="normal" in2="BackgroundImageFix" result="effect1_dropShadow_221_2648"/>
<feBlend mode="normal" in="SourceGraphic" in2="effect1_dropShadow_221_2648" result="shape"/>
</filter>
</defs>
</svg>
