<?xml version="1.0" standalone="no"?><!DOCTYPE svg PUBLIC "-//W3C//DTD SVG 1.1//EN" "http://www.w3.org/Graphics/SVG/1.1/DTD/svg11.dtd"><svg t="1688820715321" class="icon" viewBox="0 0 1024 1024" version="1.1" xmlns="http://www.w3.org/2000/svg" p-id="7271" width="64" height="64" xmlns:xlink="http://www.w3.org/1999/xlink"><path d="M961.422222 256h-153.6l-159.288889-159.288889c-11.377778-11.377778-17.066667-11.377778-28.444444-11.377778H62.577778c-22.755556 0-39.822222 17.066667-39.822222 39.822223v768c0 22.755556 17.066667 39.822222 39.822222 39.822222h898.844444c22.755556 0 39.822222-17.066667 39.822222-39.822222V295.822222c0-22.755556-17.066667-39.822222-39.822222-39.822222zM108.088889 170.666667h494.933333l85.333334 85.333333H108.088889V170.666667z m807.822222 682.666666H108.088889V341.333333h807.822222v512z" p-id="7272" fill="#3b48b3"></path><path d="M659.911111 659.911111l62.577778-62.577778L523.377778 398.222222l-199.111111 199.111111 62.577777 62.577778 96.711112-96.711111V796.444444H568.888889V557.511111l91.022222 102.4z" p-id="7273" fill="#3b48b3"></path></svg>