<?xml version="1.0" standalone="no"?><!DOCTYPE svg PUBLIC "-//W3C//DTD SVG 1.1//EN" "http://www.w3.org/Graphics/SVG/1.1/DTD/svg11.dtd"><svg t="1689237537690" class="icon" viewBox="0 0 1024 1024" version="1.1" xmlns="http://www.w3.org/2000/svg" p-id="2821" xmlns:xlink="http://www.w3.org/1999/xlink" width="200" height="200"><path d="M585.408 115.392L985.6 395.52A64 64 0 0 1 948.992 512h-53.056L896 898.56c0 33.92-36.864 61.44-82.304 61.44H210.304C164.864 960 128 932.48 128 898.56V512h-52.992A64 64 0 0 1 38.4 395.52l400.256-280.128a128 128 0 0 1 146.816 0zM512 608A96 96 0 0 0 416 704v160h192V704A96 96 0 0 0 512 608z" fill="#13227a" p-id="2822"></path></svg>