<?xml version="1.0" standalone="no"?><!DOCTYPE svg PUBLIC "-//W3C//DTD SVG 1.1//EN" "http://www.w3.org/Graphics/SVG/1.1/DTD/svg11.dtd"><svg t="1689237529736" class="icon" viewBox="0 0 1024 1024" version="1.1" xmlns="http://www.w3.org/2000/svg" p-id="2607" xmlns:xlink="http://www.w3.org/1999/xlink" width="200" height="200"><path d="M928 612.864V864A96 96 0 0 1 832 960H192a96 96 0 0 1-96-96V612.864A207.552 207.552 0 0 0 256 688l13.184-0.384a207.168 207.168 0 0 0 107.52-38.208L384 643.776l7.36 5.632c34.56 24.704 76.544 38.592 120.704 38.592l13.184-0.384a207.168 207.168 0 0 0 107.52-38.208l7.232-5.632 7.36 5.632c34.56 24.704 76.544 38.592 120.704 38.592a207.552 207.552 0 0 0 160-75.136zM789.952 80c44.736 0 85.12 26.624 102.848 67.648l66.176 153.6a208 208 0 0 1-311.616 252.16L640 547.84l-7.232 5.632a207.168 207.168 0 0 1-107.52 38.208L512 592c-44.16 0-86.08-13.888-120.704-38.592L384 547.84l-7.232 5.632a207.168 207.168 0 0 1-107.52 38.208L256 592a208 208 0 0 1-190.912-290.688l66.176-153.6A112 112 0 0 1 234.112 80h555.776zM720 256h-416a48 48 0 0 0 0 96h416a48 48 0 1 0 0-96z" fill="#13227a" p-id="2608"></path></svg>