<?xml version="1.0" standalone="no"?><!DOCTYPE svg PUBLIC "-//W3C//DTD SVG 1.1//EN" "http://www.w3.org/Graphics/SVG/1.1/DTD/svg11.dtd"><svg t="1689236929923" class="icon" viewBox="0 0 1024 1024" version="1.1" xmlns="http://www.w3.org/2000/svg" p-id="796" xmlns:xlink="http://www.w3.org/1999/xlink" width="200" height="200"><path d="M640 191.936L704 192c52.992 0 96 39.936 96 89.152v653.696c0 49.28-43.008 89.152-96 89.152H128c-52.992 0-96-39.936-96-89.152V281.152C32 231.872 75.008 192 128 192l64-0.064V320a64 64 0 0 0 56.512 63.552L256 384h320a64 64 0 0 0 64-64V191.936zM896 0a96 96 0 0 1 96 96v640A96 96 0 0 1 896 832V224a128 128 0 0 0-128-128H224A96 96 0 0 1 320 0h576zM416 736h-256V832h256v-96z m192-192h-448V640h448V544zM544 192v96h-256V192h256z" fill="#13227a" p-id="797"></path></svg>