<?xml version="1.0" standalone="no"?><!DOCTYPE svg PUBLIC "-//W3C//DTD SVG 1.1//EN" "http://www.w3.org/Graphics/SVG/1.1/DTD/svg11.dtd"><svg t="1689237506731" class="icon" viewBox="0 0 1024 1024" version="1.1" xmlns="http://www.w3.org/2000/svg" p-id="2393" xmlns:xlink="http://www.w3.org/1999/xlink" width="200" height="200"><path d="M832 64a128 128 0 0 1 128 128v640a128 128 0 0 1-128 128H192a128 128 0 0 1-128-128V192a128 128 0 0 1 128-128h640zM399.872 338.048a162.816 162.816 0 0 0-50.688 117.824 407.744 407.744 0 0 1-70.272 228.48 38.4 38.4 0 1 0 63.744 43.008 484.928 484.928 0 0 0 83.328-271.488c-0.064-23.552 9.6-46.08 26.88-62.144 16.96-15.936 39.68-24.192 62.912-23.04 46.656 3.84 82.368 43.072 81.792 89.792a658.88 658.88 0 0 1-74.88 299.52 38.464 38.464 0 0 0 68.352 35.328 736.832 736.832 0 0 0 83.328-335.232 165.888 165.888 0 0 0-155.136-166.208 160.128 160.128 0 0 0-119.36 44.16z m112.064 79.488a38.4 38.4 0 0 0-38.4 38.4 499.2 499.2 0 0 1-80.64 272.192 38.784 38.784 0 1 0 65.28 41.856A576 576 0 0 0 550.4 455.872a38.4 38.4 0 0 0-38.4-38.4z m168.96-122.88a38.4 38.4 0 0 0-10.752 51.84 201.6 201.6 0 0 1 36.48 120.96 754.112 754.112 0 0 1-44.928 248.768 38.4 38.4 0 1 0 72.192 26.112c31.744-87.68 48.512-180.096 49.536-273.408a278.016 278.016 0 0 0-50.304-166.208 38.4 38.4 0 0 0-52.224-8zM513.472 182.976A268.8 268.8 0 0 0 320 260.096a272.64 272.64 0 0 0-82.176 195.84 289.152 289.152 0 0 1-44.928 153.6 38.4 38.4 0 1 0 64.896 41.024c37.12-58.688 56.896-126.72 56.832-196.224a194.688 194.688 0 0 1 289.152-170.112 38.4 38.4 0 1 0 38.4-66.368 258.432 258.432 0 0 0-128.64-34.944z" fill="#13227a" p-id="2394"></path></svg>