<svg width="208" height="212" viewBox="0 0 208 212" fill="none" xmlns="http://www.w3.org/2000/svg">
<path d="M109.273 17.6219L176.169 56.2442C179.432 58.1281 181.442 61.6098 181.442 65.3777V142.622C181.442 146.39 179.432 149.872 176.169 151.756L109.273 190.378C106.01 192.262 101.99 192.262 98.7267 190.378L31.831 151.756C28.5679 149.872 26.5577 146.39 26.5577 142.622V65.3777C26.5577 61.6098 28.5679 58.1281 31.831 56.2442L98.7267 17.6219C101.99 15.7379 106.01 15.7379 109.273 17.6219Z" stroke="#FFEBEB"/>
<g filter="url(#filter0_d_179_3465)">
<path d="M98.7674 27.021C102.005 25.1516 105.995 25.1516 109.233 27.021L168.049 60.979C171.287 62.8484 173.282 66.3032 173.282 70.042V137.958C173.282 141.697 171.287 145.152 168.049 147.021L109.233 180.979C105.995 182.848 102.005 182.848 98.7674 180.979L39.9505 147.021C36.7126 145.152 34.718 141.697 34.718 137.958V70.042C34.718 66.3032 36.7126 62.8484 39.9505 60.979L98.7674 27.021Z" fill="white"/>
</g>
<g filter="url(#filter1_d_179_3465)">
<path d="M99 41.8868C102.094 40.1004 105.906 40.1004 109 41.8868L155.292 68.6132C158.386 70.3996 160.292 73.7008 160.292 77.2735V130.726C160.292 134.299 158.386 137.6 155.292 139.387L109 166.113C105.906 167.9 102.094 167.9 99 166.113L52.7083 139.387C49.6143 137.6 47.7083 134.299 47.7083 130.726V77.2735C47.7083 73.7008 49.6143 70.3996 52.7083 68.6132L99 41.8868Z" fill="white"/>
<path d="M107.75 44.0518L154.042 70.7783C156.362 72.1181 157.792 74.594 157.792 77.2735V130.726C157.792 133.406 156.362 135.882 154.042 137.222L107.75 163.948C105.429 165.288 102.571 165.288 100.25 163.948L53.9583 137.222C51.6378 135.882 50.2083 133.406 50.2083 130.727V77.2735C50.2083 74.594 51.6378 72.1181 53.9583 70.7783L100.25 44.0518C102.571 42.7121 105.429 42.7121 107.75 44.0518Z" stroke="#D81414" stroke-width="5"/>
</g>
<g clip-path="url(#clip0_179_3465)">
<path d="M130.796 105.197C127.042 102.805 123.287 100.414 119.529 98.0217C119.469 97.9892 119.42 97.94 119.387 97.8799C119.354 97.8199 119.339 97.7515 119.344 97.6832C119.317 96.8674 119.278 96.0544 119.245 95.2414C119.162 93.2065 119.078 91.1717 118.991 89.1369C118.925 87.5247 118.856 85.9126 118.798 84.3004C118.8 84.2202 118.779 84.1411 118.737 84.073C118.695 84.0049 118.633 83.9508 118.561 83.9175C115.066 81.8938 111.572 79.8682 108.077 77.8407C107.595 77.5633 107.112 77.2858 106.626 77.0083L106.557 77.0943C107.109 77.616 107.661 78.1238 108.182 78.6593C110.308 80.8144 112.432 82.9769 114.552 85.1467C114.621 85.2189 114.707 85.2716 114.687 85.4076C114.619 85.9098 114.572 86.412 114.514 86.9143C114.33 88.5458 114.141 90.1774 113.948 91.809C113.755 93.4738 113.562 95.1387 113.38 96.8036C113.379 96.8761 113.355 96.9464 113.31 97.0036C113.266 97.0607 113.204 97.1016 113.134 97.1199C110.326 98.3112 107.517 99.5034 104.709 100.697C104.639 100.715 104.579 100.759 104.539 100.819C104.499 100.879 104.483 100.952 104.494 101.024C104.494 101.748 104.494 102.472 104.494 103.197C104.494 103.374 104.541 103.416 104.715 103.416C106.35 103.416 107.984 103.416 109.62 103.416C109.701 103.399 109.785 103.409 109.86 103.446C109.802 103.555 109.747 103.652 109.691 103.749C108.891 105.142 108.089 106.535 107.286 107.928C107.197 108.078 107.228 108.13 107.363 108.205C107.997 108.563 108.626 108.924 109.25 109.298C109.307 109.344 109.378 109.366 109.45 109.362C109.522 109.358 109.59 109.328 109.642 109.276C112.077 107.426 114.515 105.577 116.955 103.727C117.002 103.683 117.062 103.655 117.126 103.647C117.19 103.639 117.255 103.651 117.311 103.682C120.771 105.195 124.233 106.703 127.698 108.205C127.759 108.227 127.814 108.264 127.857 108.312C127.9 108.361 127.931 108.419 127.946 108.483C128.928 112.088 129.914 115.695 130.903 119.304C130.911 119.382 130.943 119.456 130.995 119.515V119.277C130.995 114.72 130.995 110.164 130.995 105.608C131.01 105.527 130.998 105.444 130.963 105.37C130.927 105.296 130.868 105.235 130.796 105.197V105.197Z" fill="#E03F3F"/>
<path d="M80.3105 108.195C83.7608 106.696 87.2102 105.194 90.6586 103.688C90.7245 103.652 90.8002 103.637 90.8749 103.646C90.9497 103.655 91.0198 103.687 91.0752 103.738C93.5103 105.588 95.9481 107.438 98.3887 109.288C98.4307 109.333 98.4881 109.361 98.5494 109.365C98.6106 109.37 98.6714 109.351 98.7197 109.313C99.3487 108.936 99.986 108.569 100.623 108.203C100.767 108.123 100.803 108.064 100.712 107.906C99.8876 106.487 99.0701 105.068 98.259 103.647C98.2024 103.579 98.1669 103.496 98.1569 103.408H98.3997C100.033 103.408 101.667 103.408 103.302 103.408C103.454 103.408 103.509 103.38 103.506 103.214C103.506 102.459 103.506 101.705 103.506 100.953C103.513 100.898 103.501 100.842 103.47 100.796C103.44 100.75 103.394 100.717 103.341 100.703C102.83 100.492 102.32 100.275 101.812 100.059L94.8161 97.0789C94.7278 97.0401 94.6478 97.0207 94.634 96.8875C94.5678 96.2493 94.4878 95.6138 94.4161 94.9784L93.9029 90.4861C93.719 88.8323 93.5277 87.1785 93.3291 85.5247C93.3163 85.4455 93.324 85.3643 93.3516 85.2889C93.3791 85.2136 93.4255 85.1467 93.4864 85.0947C96.0722 82.4697 98.6544 79.8401 101.233 77.206C101.285 77.156 101.36 77.1144 101.374 77.0117L101.283 77.0561L89.3675 83.9681C89.323 83.9919 89.2859 84.0275 89.2602 84.071C89.2344 84.1146 89.221 84.1644 89.2213 84.215C89.1827 85.2778 89.1385 86.3405 89.0944 87.4033C88.9509 90.8384 88.8075 94.2746 88.6641 97.7116C88.6676 97.7729 88.6537 97.8339 88.6238 97.8875C88.594 97.9411 88.5496 97.985 88.4958 98.014C85.7885 99.7362 83.0831 101.46 80.3795 103.186C79.2649 103.893 78.1541 104.604 77.0469 105.32H77V119.549C77.056 119.487 77.0866 119.406 77.0855 119.322C77.0855 119.277 77.1159 119.236 77.1297 119.191C78.1026 115.625 79.0764 112.057 80.0512 108.489C80.0653 108.421 80.0966 108.359 80.1421 108.307C80.1876 108.256 80.2456 108.217 80.3105 108.195V108.195Z" fill="#E03F3F"/>
<path d="M117.38 126.829C117.315 126.849 117.247 126.851 117.181 126.837C117.114 126.822 117.053 126.791 117.002 126.746C116.34 126.241 115.67 125.747 115.002 125.248C112.64 123.483 110.276 121.719 107.909 119.956C107.86 119.927 107.821 119.883 107.798 119.83C107.774 119.777 107.768 119.719 107.78 119.662C107.851 119.154 107.906 118.644 107.967 118.136C108.138 116.738 108.31 115.34 108.483 113.943C108.627 112.775 108.759 111.61 108.916 110.444C108.932 110.384 108.925 110.32 108.896 110.265C108.867 110.209 108.82 110.167 108.762 110.145C108.13 109.787 107.501 109.423 106.877 109.049C106.723 108.957 106.659 108.96 106.566 109.126C105.716 110.625 104.858 112.112 104 113.605H103.97C103.103 112.094 102.239 110.581 101.376 109.068C101.305 108.943 101.255 108.963 101.156 109.021C100.587 109.357 100.027 109.704 99.4426 110.006C99.1226 110.172 98.9708 110.356 99.095 110.716C99.1219 110.826 99.1376 110.939 99.1419 111.052C99.4913 113.925 99.8426 116.792 100.196 119.654C100.208 119.706 100.204 119.761 100.184 119.811C100.164 119.861 100.128 119.903 100.083 119.931C97.0167 122.216 93.9646 124.497 90.9263 126.774C90.8858 126.811 90.8364 126.836 90.7831 126.847C90.7298 126.858 90.6745 126.855 90.6228 126.838C87.0364 125.893 83.45 124.949 79.8636 124.008C79.8002 123.991 79.7367 123.949 79.6567 124.008L79.8912 124.149C83.7829 126.408 87.6746 128.668 91.5663 130.931C91.6257 130.971 91.6959 130.993 91.7677 130.993C91.8395 130.993 91.9097 130.971 91.9691 130.931C94.68 129.499 97.3937 128.069 100.11 126.641L103.972 124.607H104.017C104.041 124.624 104.067 124.64 104.094 124.654C108.057 126.741 112.023 128.829 115.99 130.92C116.058 130.966 116.138 130.991 116.22 130.991C116.302 130.991 116.382 130.966 116.45 130.92C120.366 128.639 124.283 126.362 128.203 124.091C128.263 124.055 128.341 124.035 128.385 123.946L125.185 124.779C122.578 125.463 119.977 126.147 117.38 126.829Z" fill="#E03F3F"/>
<path d="M93.8918 106.998C93.3649 106.612 92.849 106.213 92.3276 105.819L90.722 104.606V104.864C90.722 108.009 90.722 111.146 90.722 114.276C90.7149 114.349 90.7308 114.422 90.7674 114.485C90.8041 114.548 90.8597 114.597 90.9262 114.626C92.6587 115.627 94.3875 116.631 96.1126 117.639L99.2742 119.476C99.1142 118.153 98.9514 116.868 98.808 115.592C98.8023 115.501 98.7717 115.414 98.7195 115.34C98.6674 115.266 98.5958 115.208 98.5128 115.173C97.0451 114.374 95.5857 113.563 94.1208 112.764C94.0575 112.738 94.005 112.69 93.972 112.63C93.9389 112.569 93.9272 112.499 93.9387 112.431C93.9829 110.736 94.016 109.04 94.0573 107.342C94.0652 107.275 94.0539 107.207 94.0245 107.146C93.9952 107.085 93.9492 107.034 93.8918 106.998V106.998Z" fill="#E03F3F"/>
<path d="M113.796 112.753C112.342 113.547 110.9 114.357 109.443 115.142C109.352 115.186 109.275 115.253 109.219 115.338C109.164 115.423 109.132 115.521 109.128 115.622C109.037 116.455 108.933 117.268 108.833 118.092C108.778 118.536 108.726 118.982 108.671 119.454C108.756 119.41 108.817 119.379 108.872 119.346C111.581 117.772 114.288 116.199 116.994 114.629C117.06 114.599 117.115 114.549 117.151 114.485C117.187 114.422 117.203 114.349 117.195 114.276C117.195 111.132 117.195 107.987 117.195 104.842C117.21 104.764 117.2 104.684 117.168 104.612L117.005 104.728C116.012 105.48 115.021 106.238 114.023 106.981C113.967 107.017 113.923 107.067 113.895 107.126C113.867 107.186 113.855 107.252 113.863 107.317C113.907 109.024 113.943 110.727 113.989 112.431C113.997 112.499 113.982 112.567 113.947 112.625C113.912 112.683 113.859 112.728 113.796 112.753V112.753Z" fill="#E03F3F"/>
<path d="M95.4836 96.1737L99.128 97.7331C99.1718 97.7542 99.2204 97.7633 99.2689 97.7594C99.3173 97.7555 99.3639 97.7388 99.4038 97.711C99.7845 97.4695 100.171 97.242 100.554 97.0062L103.939 94.9278H103.983C105.501 95.8528 107.016 96.7777 108.53 97.7026C108.576 97.7311 108.629 97.7462 108.683 97.7462C108.737 97.7462 108.79 97.7311 108.836 97.7026C109.556 97.3891 110.279 97.0811 110.999 96.7731L112.505 96.1293L112.329 96.0239L105.738 92.203C105.156 91.8673 104.568 91.5398 103.983 91.2069C103.975 91.2018 103.965 91.1987 103.955 91.1978C103.945 91.1969 103.935 91.1982 103.925 91.2016C103.916 91.2051 103.907 91.2105 103.9 91.2177C103.893 91.2248 103.888 91.2334 103.884 91.2429H103.843L95.5664 96.0405C95.5471 96.0877 95.4836 96.0933 95.4836 96.1737Z" fill="#E03F3F"/>
</g>
<defs>
<filter id="filter0_d_179_3465" x="13.7878" y="13.0609" width="180.424" height="198.622" filterUnits="userSpaceOnUse" color-interpolation-filters="sRGB">
<feFlood flood-opacity="0" result="BackgroundImageFix"/>
<feColorMatrix in="SourceAlpha" type="matrix" values="0 0 0 0 0 0 0 0 0 0 0 0 0 0 0 0 0 0 127 0" result="hardAlpha"/>
<feOffset dy="8.37209"/>
<feGaussianBlur stdDeviation="10.4651"/>
<feComposite in2="hardAlpha" operator="out"/>
<feColorMatrix type="matrix" values="0 0 0 0 0.85098 0 0 0 0 0.0823529 0 0 0 0 0.0823529 0 0 0 0.15 0"/>
<feBlend mode="normal" in2="BackgroundImageFix" result="effect1_dropShadow_179_3465"/>
<feBlend mode="normal" in="SourceGraphic" in2="effect1_dropShadow_179_3465" result="shape"/>
</filter>
<filter id="filter1_d_179_3465" x="37.7084" y="34.547" width="132.583" height="146.906" filterUnits="userSpaceOnUse" color-interpolation-filters="sRGB">
<feFlood flood-opacity="0" result="BackgroundImageFix"/>
<feColorMatrix in="SourceAlpha" type="matrix" values="0 0 0 0 0 0 0 0 0 0 0 0 0 0 0 0 0 0 127 0" result="hardAlpha"/>
<feOffset dy="4"/>
<feGaussianBlur stdDeviation="5"/>
<feComposite in2="hardAlpha" operator="out"/>
<feColorMatrix type="matrix" values="0 0 0 0 0.847059 0 0 0 0 0.0784314 0 0 0 0 0.0784314 0 0 0 0.3 0"/>
<feBlend mode="normal" in2="BackgroundImageFix" result="effect1_dropShadow_179_3465"/>
<feBlend mode="normal" in="SourceGraphic" in2="effect1_dropShadow_179_3465" result="shape"/>
</filter>
<clipPath id="clip0_179_3465">
<rect width="54" height="54" fill="white" transform="translate(77 77)"/>
</clipPath>
</defs>
</svg>
