<svg id="Layer_1" data-name="Layer 1" xmlns="http://www.w3.org/2000/svg" viewBox="0 0 65.353 49.765"><defs><style>.cls-1{fill:#cc2973;}</style></defs><title>quotes</title><path class="cls-1" d="M36.133,0.234H65.353v25.11A21.636,21.636,0,0,1,63.1,35.75a21.4,21.4,0,0,1-5.838,6.881,31.311,31.311,0,0,1-7.99,4.4Q44.876,48.7,40.57,50l-4.305-7.825a44.442,44.442,0,0,0,5.576-2.511,16.069,16.069,0,0,0,3.783-2.773,9.357,9.357,0,0,0,2.154-3.422,13.517,13.517,0,0,0,.684-4.533H36.133V0.234ZM0,0.234H29.154v25.11A21.636,21.636,0,0,1,26.905,35.75,21.564,21.564,0,0,1,21.1,42.631a30.786,30.786,0,0,1-7.957,4.4Q8.742,48.7,4.437,50L0.066,42.174a44.447,44.447,0,0,0,5.576-2.511A16.094,16.094,0,0,0,9.425,36.89a9.365,9.365,0,0,0,2.153-3.422,13.517,13.517,0,0,0,.684-4.533H0V0.234Z" transform="translate(0 -0.234)"/></svg>