<?xml version="1.0" standalone="no"?><!DOCTYPE svg PUBLIC "-//W3C//DTD SVG 1.1//EN" "http://www.w3.org/Graphics/SVG/1.1/DTD/svg11.dtd"><svg t="1688562854614" class="icon" viewBox="0 0 1024 1024" version="1.1" xmlns="http://www.w3.org/2000/svg" p-id="4516" width="16" height="16" xmlns:xlink="http://www.w3.org/1999/xlink"><path d="M953.388 880.674L830.392 662.642c-20.906-37.06-74.869-36.884-95.528 0.311L613.761 880.984C593.769 916.978 620.096 961 661.613 961h244.098c41.675 0 67.985-44.327 47.677-80.326zM786.251 691.667c13.114 0 23.844 10.725 23.844 23.833l-9.538 129.652s-2.861 5.72-6.676 6.673c-1.851 0.462-5.767 0-8.584 0-7.63 0-10.491-6.673-10.491-6.673L762.407 715.5c0-13.108 10.73-23.833 23.844-23.833z m1.249 242.152c-15.74 0-28.5-12.752-28.5-28.483s12.76-28.483 28.5-28.483 28.5 12.752 28.5 28.483-12.76 28.483-28.5 28.483zM127 781.5h92c33 0 60-27 60-60v-305c0-33-27-60-60-60h-92c-33 0-60 27-60 60v305c0 33 27 60 60 60z m0-365h92v305h-92v-305zM502 250h-92c-33 0-60 27-60 60v412c0 33 27 60 60 60h92c33 0 60-27 60-60V310c0-33-27-60-60-60z m0 472h-92V310h92v412zM653 672c16.5 0 30-13.5 30-30V125h92v374c0 16.5 13.5 30 30 30s30-13.5 30-30V125c0-33-27-60-60-60h-92c-33 0-60 27-60 60v517c0 16.5 13.5 30 30 30zM504.989 868.46H89.387c-13.75 0-25 11.25-25 25v12.078c0 13.75 11.25 25 25 25h415.602c13.75 0 25-11.25 25-25V893.46c0-13.75-11.25-25-25-25z" fill="#141414" p-id="4517"></path></svg>