<?xml version="1.0" standalone="no"?><!DOCTYPE svg PUBLIC "-//W3C//DTD SVG 1.1//EN" "http://www.w3.org/Graphics/SVG/1.1/DTD/svg11.dtd"><svg t="1688562910662" class="icon" viewBox="0 0 1024 1024" version="1.1" xmlns="http://www.w3.org/2000/svg" p-id="5446" width="16" height="16" xmlns:xlink="http://www.w3.org/1999/xlink"><path d="M288.085333 581.674667a298.666667 298.666667 0 1 1 447.829334 0l-44.373334 155.392a42.666667 42.666667 0 0 1-41.045333 30.933333H373.504a42.666667 42.666667 0 0 1-41.002667-30.933333l-44.373333-155.392zM682.666667 384a42.666667 42.666667 0 0 1-85.333334 0 85.333333 85.333333 0 0 0-85.333333-85.333333 42.666667 42.666667 0 0 1 0-85.333334 170.666667 170.666667 0 0 1 170.666667 170.666667z m-276.949334 298.666667h212.565334l40.874666-143.018667 12.8-14.506667a213.333333 213.333333 0 1 0-319.914666 0l12.8 14.506667L405.717333 682.666667zM597.333333 896a42.666667 42.666667 0 0 1-42.666666 42.666667h-85.333334a42.666667 42.666667 0 0 1-42.666666-42.666667H384a42.666667 42.666667 0 0 1-42.666667-42.666667v-25.6c0-9.386667 7.68-17.066667 17.066667-17.066666h307.2c9.386667 0 17.066667 7.68 17.066667 17.066666v25.6a42.666667 42.666667 0 0 1-42.666667 42.666667h-42.666667z" fill="#31303D" p-id="5447"></path></svg>