<svg width="18" height="18" viewBox="0 0 18 18" fill="none" xmlns="http://www.w3.org/2000/svg">
<path fill-rule="evenodd" clip-rule="evenodd" d="M1 9C1 4.58857 4.58857 1 9 1C13.4114 1 17 4.58857 17 9C17 13.4114 13.4114 17 9 17C4.58857 17 1 13.4114 1 9ZM13.2102 5.88053C12.7497 5.44884 12.0265 5.47217 11.5948 5.93264L8.14286 9.61486L6.40519 7.76121L6.30064 7.66272C5.86378 7.29984 5.21483 7.31062 4.78978 7.7091C4.32931 8.14079 4.30598 8.86403 4.73767 9.3245L7.3091 12.0674L7.41042 12.1632C7.86823 12.5465 8.55735 12.5146 8.97661 12.0674L13.2623 7.49593L13.3539 7.38526C13.6878 6.92592 13.6353 6.27901 13.2102 5.88053Z" fill="#3ABA6F"/>
</svg>
