<svg width="18" height="18" viewBox="0 0 18 18" fill="none" xmlns="http://www.w3.org/2000/svg">
<path fill-rule="evenodd" clip-rule="evenodd" d="M9 1C4.58857 1 1 4.58857 1 9C1 13.4114 4.58857 17 9 17C13.4114 17 17 13.4114 17 9C17 4.58857 13.4114 1 9 1ZM8 6C8 5.44772 8.44772 5 9 5C9.55229 5 10 5.44772 10 6V10C10 10.5523 9.55229 11 9 11C8.44772 11 8 10.5523 8 10V6ZM9 12C8.44772 12 8 12.4477 8 13C8 13.5523 8.44772 14 9 14C9.55229 14 10 13.5523 10 13C10 12.4477 9.55229 12 9 12Z" fill="#DB1616"/>
</svg>
